<svg  viewBox="0 0 24 24"  xmlns="http://www.w3.org/2000/svg">
<path d="M17.5556 10.5556H19.7778C20.3671 10.5556 20.9324 10.7897 21.3491 11.2064C21.7659 11.6232 22 12.1884 22 12.7778V15C22 15.2947 21.8829 15.5773 21.6746 15.7857C21.4662 15.994 21.1836 16.1111 20.8889 16.1111H19.2222M17.5556 10.5556H10.3333M17.5556 10.5556L14.87 6.07889C14.6726 5.74983 14.3933 5.47751 14.0593 5.28844C13.7254 5.09937 13.3482 5 12.9644 5H10.3333M19.2222 16.1111C19.2222 16.7005 18.9881 17.2657 18.5713 17.6825C18.1546 18.0992 17.5894 18.3333 17 18.3333C16.4106 18.3333 15.8454 18.0992 15.4287 17.6825C15.0119 17.2657 14.7778 16.7005 14.7778 16.1111M19.2222 16.1111C19.2222 15.5217 18.9881 14.9565 18.5713 14.5398C18.1546 14.123 17.5894 13.8889 17 13.8889C16.4106 13.8889 15.8454 14.123 15.4287 14.5398C15.0119 14.9565 14.7778 15.5217 14.7778 16.1111M10.3333 10.5556V5M10.3333 10.5556H4.22222M10.3333 5H7.15556C6.64164 4.9998 6.14353 5.17772 5.74605 5.50349C5.34857 5.82925 5.07628 6.28271 4.97556 6.78667L4.22222 10.5556M4.22222 10.5556C3.63285 10.5556 3.06762 10.7897 2.65087 11.2064C2.23413 11.6232 2 12.1884 2 12.7778V15C2 15.2947 2.11706 15.5773 2.32544 15.7857C2.53381 15.994 2.81643 16.1111 3.11111 16.1111H4.77778M4.77778 16.1111C4.77778 16.7005 5.0119 17.2657 5.42865 17.6825C5.8454 18.0992 6.41063 18.3333 7 18.3333C7.58937 18.3333 8.1546 18.0992 8.57135 17.6825C8.9881 17.2657 9.22222 16.7005 9.22222 16.1111M4.77778 16.1111C4.77778 15.5217 5.0119 14.9565 5.42865 14.5398C5.8454 14.123 6.41063 13.8889 7 13.8889C7.58937 13.8889 8.1546 14.123 8.57135 14.5398C8.9881 14.9565 9.22222 15.5217 9.22222 16.1111M9.22222 16.1111H14.7778"  stroke-width="1.4" stroke-linecap="round" stroke-linejoin="round"/>
</svg>
