<svg width="22" height="20" viewBox="0 0 22 20" xmlns="http://www.w3.org/2000/svg">
<path d="M1 7.11111L11 1L21 7.11111M18.7778 11V18.1111C18.7778 18.2879 18.7075 18.4575 18.5825 18.5825C18.4575 18.7075 18.2879 18.7778 18.1111 18.7778H3.88889C3.71208 18.7778 3.54251 18.7075 3.41748 18.5825C3.29246 18.4575 3.22222 18.2879 3.22222 18.1111V11" stroke="#7C7C7C" stroke-width="1.5" stroke-linecap="round" stroke-linejoin="round"/>
<path d="M13.2223 7.49557C12.1112 6.47001 9.14783 6.1289 9.14783 8.18001C9.14783 10.2311 13.2223 9.20557 13.2223 11.2556C13.2223 13.3056 9.88894 13.3067 8.77783 11.9389M11.0001 12.8911V14.3333M11.0001 6.68112V5.44446" stroke="#7C7C7C" stroke-width="1.5" stroke-linecap="round" stroke-linejoin="round"/>
</svg>
