<svg width="22" height="22" viewBox="0 0 22 22"  xmlns="http://www.w3.org/2000/svg">
<path d="M9.23082 2.58503L2.87831 7.67252C2.16331 8.24085 1.70498 9.44172 1.86081 10.34L3.07998 17.6367C3.29998 18.9383 4.54664 19.9925 5.86664 19.9925H16.1333C17.4442 19.9925 18.7 18.9292 18.92 17.6367L20.1391 10.34C20.2858 9.44172 19.8275 8.24085 19.1216 7.67252L12.7691 2.59421C11.7883 1.80587 10.2025 1.80586 9.23082 2.58503Z" stroke="#7C7C7C" stroke-width="1.5" stroke-linecap="round" stroke-linejoin="round"/>
<path d="M11.0001 14.2083C12.2658 14.2083 13.2918 13.1823 13.2918 11.9167C13.2918 10.651 12.2658 9.625 11.0001 9.625C9.73445 9.625 8.70844 10.651 8.70844 11.9167C8.70844 13.1823 9.73445 14.2083 11.0001 14.2083Z" stroke="#7C7C7C" stroke-width="1.5" stroke-linecap="round" stroke-linejoin="round"/>
</svg>
